<svg width="31" height="31" viewBox="0 0 31 31" fill="none" xmlns="http://www.w3.org/2000/svg">
<path d="M17.5538 5.8125H17.7733C19.26 5.8125 20.1397 5.8125 20.8798 6.01012C21.8653 6.2742 22.764 6.79305 23.4855 7.51452C24.207 8.23599 24.7258 9.13466 24.9899 10.1202C25.1875 10.8603 25.1875 11.74 25.1875 13.2267V15.2688C25.1875 15.9689 25.1875 16.5346 25.15 16.9906C25.1113 17.462 25.0299 17.8754 24.8349 18.2577C24.5253 18.865 24.0316 19.3587 23.4244 19.6682C23.042 19.8633 22.6287 19.9446 22.1585 19.9834C21.7 20.0208 21.1355 20.0208 20.4355 20.0208H18.3158C17.6158 20.0208 17.05 20.0208 16.594 19.9834C16.1226 19.9446 15.7092 19.8633 15.3269 19.6682C14.7197 19.3587 14.2259 18.865 13.9164 18.2577C13.7214 17.8754 13.64 17.462 13.6012 16.9919C13.5638 16.5333 13.5638 15.9689 13.5638 15.2688V9.80375C13.5638 9.09979 13.5638 8.61929 13.6736 8.20725C13.8203 7.65964 14.1085 7.16029 14.5094 6.75942C14.9103 6.35854 15.4096 6.07027 15.9572 5.92358C16.3706 5.81379 16.8498 5.8125 17.5538 5.8125ZM17.6532 7.10546C16.811 7.10546 16.5165 7.11063 16.2905 7.17133C15.9622 7.25942 15.6629 7.43229 15.4226 7.67261C15.1823 7.91294 15.0094 8.21225 14.9213 8.5405C14.8593 8.76783 14.8542 9.06233 14.8542 9.9045V15.2417C14.8542 15.9753 14.8542 16.4868 14.8877 16.886C14.9187 17.2773 14.9782 17.5008 15.066 17.6713C15.2515 18.036 15.5476 18.3326 15.912 18.5186C16.0825 18.6052 16.306 18.6646 16.6974 18.6956C17.0965 18.7292 17.608 18.7292 18.3417 18.7292H20.4083C21.142 18.7292 21.6548 18.7292 22.0526 18.6956C22.4427 18.6646 22.6675 18.6052 22.838 18.5173C23.2026 18.3319 23.4993 18.0357 23.6853 17.6713C23.7718 17.5008 23.8313 17.2773 23.8623 16.886C23.8958 16.4868 23.8958 15.9753 23.8958 15.2417V13.3468C23.8958 12.6041 23.8958 12.0551 23.8803 11.625H21.3125C20.7986 11.625 20.3058 11.4209 19.9425 11.0575C19.5791 10.6942 19.375 10.2014 19.375 9.6875V7.11967C18.8012 7.10539 18.2272 7.10152 17.6532 7.10546ZM20.6667 7.29275V9.6875C20.6667 9.85879 20.7347 10.0231 20.8558 10.1442C20.9769 10.2653 21.1412 10.3333 21.3125 10.3333H23.7072C23.4927 9.61391 23.1024 8.95923 22.5716 8.42839C22.0408 7.89755 21.3861 7.50726 20.6667 7.29275ZM10.9753 10.9792H10.9792C11.1505 10.9792 11.3147 11.0472 11.4358 11.1683C11.557 11.2894 11.625 11.4537 11.625 11.625C11.625 11.7963 11.557 11.9606 11.4358 12.0817C11.3147 12.2028 11.1505 12.2708 10.9792 12.2708C10.6562 12.2708 10.0324 12.2708 9.42529 12.3044C9.12046 12.3225 8.83112 12.347 8.59217 12.3819C8.33125 12.4207 8.1995 12.4633 8.16204 12.4814C7.79716 12.6672 7.50052 12.9638 7.31471 13.3287C7.22817 13.4992 7.16875 13.7227 7.13775 14.114C7.10417 14.5132 7.10417 15.0247 7.10417 15.7583V20.4083C7.10417 21.142 7.10417 21.6548 7.13775 22.0526C7.16875 22.4427 7.22817 22.6675 7.31471 22.838C7.50052 23.2028 7.79716 23.4995 8.16204 23.6853C8.33254 23.7718 8.55729 23.8313 8.94738 23.8623C9.3465 23.8958 9.858 23.8958 10.5917 23.8958H12.6583C13.392 23.8958 13.9035 23.8958 14.3026 23.8623C14.694 23.8313 14.9175 23.7718 15.088 23.6853C15.4528 23.4995 15.7495 23.2028 15.9353 22.838C16.0335 22.6442 16.0903 22.422 16.1187 22.2373C16.1316 22.1452 16.1398 22.0733 16.1432 22.0216L16.1458 21.9661V21.9557V21.9583C16.1459 21.8735 16.1627 21.7896 16.1952 21.7112C16.2278 21.6329 16.2754 21.5618 16.3355 21.5019C16.3955 21.4419 16.4667 21.3944 16.5451 21.3621C16.6235 21.3297 16.7075 21.3131 16.7923 21.3131C16.8771 21.3132 16.9611 21.33 17.0394 21.3626C17.1177 21.3951 17.1889 21.4427 17.2488 21.5028C17.3087 21.5628 17.3562 21.634 17.3886 21.7124C17.421 21.7908 17.4376 21.8748 17.4375 21.9596V22.0074L17.431 22.1082C17.4237 22.2189 17.4117 22.3292 17.3949 22.4388C17.3431 22.7818 17.2386 23.1147 17.0849 23.4257C16.7753 24.0329 16.2816 24.5266 15.6744 24.8362C15.292 25.0312 14.8787 25.1126 14.4085 25.1513C13.95 25.1888 13.3855 25.1888 12.6855 25.1888H10.5658C9.86575 25.1888 9.3 25.1888 8.84404 25.1513C8.37258 25.1126 7.95925 25.0312 7.57692 24.8362C6.9692 24.5269 6.47499 24.0331 6.16512 23.4257C5.97137 23.0433 5.89 22.63 5.85125 22.1598C5.8125 21.7 5.8125 21.1343 5.8125 20.4342V15.7325C5.8125 15.0324 5.8125 14.4667 5.84996 14.0107C5.88871 13.5393 5.97008 13.1259 6.16383 12.7436C6.47348 12.1357 6.96771 11.6414 7.57562 11.3318C7.81458 11.2104 8.12846 11.1471 8.40229 11.1057C8.69679 11.0631 9.03004 11.0347 9.35296 11.0166C9.99879 10.9805 10.6524 10.9805 10.9753 10.9805" fill="black"/>
</svg>
