<svg width="115" height="115" viewBox="0 0 115 115" fill="none" xmlns="http://www.w3.org/2000/svg">
<path d="M40.6241 40.6237C41.5227 39.7254 42.7413 39.2208 44.0118 39.2208C45.2824 39.2208 46.501 39.7254 47.3995 40.6237L57.7208 50.9402L68.0373 40.6237C68.4793 40.1661 69.008 39.8011 69.5926 39.5499C70.1772 39.2988 70.806 39.1666 71.4422 39.1611C72.0784 39.1556 72.7094 39.2768 73.2983 39.5177C73.8872 39.7587 74.4222 40.1144 74.8721 40.5643C75.322 41.0143 75.6778 41.5493 75.9187 42.1381C76.1596 42.727 76.2809 43.358 76.2753 43.9942C76.2698 44.6304 76.1376 45.2592 75.8865 45.8438C75.6354 46.4284 75.2703 46.9571 74.8127 47.3992L64.4962 57.7204L74.8127 68.0369C75.6855 68.9406 76.1685 70.151 76.1576 71.4073C76.1467 72.6637 75.6427 73.8655 74.7543 74.7539C73.8659 75.6423 72.6641 76.1463 71.4077 76.1572C70.1514 76.1681 68.941 75.6851 68.0373 74.8123L57.7208 64.4958L47.3995 74.8123C46.4924 75.6642 45.2893 76.1297 44.045 76.1104C42.8007 76.0911 41.6127 75.5884 40.7324 74.7087C39.8521 73.8291 39.3486 72.6414 39.3284 71.3971C39.3082 70.1528 39.7729 68.9494 40.6241 68.0417L50.9406 57.7252L40.6241 47.4039C39.7258 46.5054 39.2212 45.2868 39.2212 44.0162C39.2212 42.7457 39.7258 41.5271 40.6241 40.6285" fill="#3CBEA5"/>
<path fill-rule="evenodd" clip-rule="evenodd" d="M57.5002 9.58333C31.0358 9.58333 9.5835 31.0356 9.5835 57.5C9.5835 83.9644 31.0358 105.417 57.5002 105.417C83.9645 105.417 105.417 83.9644 105.417 57.5C105.417 31.0356 83.9645 9.58333 57.5002 9.58333ZM19.1668 57.5C19.1668 47.3334 23.2055 37.5831 30.3944 30.3942C37.5833 23.2053 47.3335 19.1667 57.5002 19.1667C67.6668 19.1667 77.417 23.2053 84.6059 30.3942C91.7948 37.5831 95.8335 47.3334 95.8335 57.5C95.8335 67.6666 91.7948 77.4169 84.6059 84.6058C77.417 91.7946 67.6668 95.8333 57.5002 95.8333C47.3335 95.8333 37.5833 91.7946 30.3944 84.6058C23.2055 77.4169 19.1668 67.6666 19.1668 57.5Z" fill="#3CBEA5"/>
</svg>
