<svg width="71" height="71" viewBox="0 0 71 71" fill="none" xmlns="http://www.w3.org/2000/svg">
<path d="M16.2708 58.8708C11.784 58.8708 7.95101 57.3177 4.77179 54.2114C1.59257 51.1052 0.00197222 47.3087 0 42.8219C0 38.976 1.15868 35.5493 3.47604 32.5416C5.7934 29.534 8.8257 27.6111 12.5729 26.7729C13.8056 22.2368 16.2708 18.5635 19.9688 15.7531C23.6667 12.9427 27.8576 11.5375 32.5417 11.5375C38.3104 11.5375 43.2045 13.5472 47.2239 17.5666C51.2433 21.5859 53.252 26.479 53.25 32.2458C56.6521 32.6403 59.4753 34.1076 61.7197 36.6478C63.9641 39.188 65.0853 42.1582 65.0833 45.5583C65.0833 49.2562 63.7896 52.3999 61.202 54.9895C58.6144 57.579 55.4707 58.8728 51.7708 58.8708H16.2708Z" fill="white"/>
</svg>
