<svg width="9" height="9" viewBox="0 0 9 9" fill="none" xmlns="http://www.w3.org/2000/svg">
<path fill-rule="evenodd" clip-rule="evenodd" d="M4.01244 6.52118C4.06179 6.60678 4.13281 6.67786 4.21836 6.72729C4.3039 6.77671 4.40096 6.80273 4.49976 6.80273C4.59855 6.80273 4.69561 6.77671 4.78116 6.72729C4.8667 6.67786 4.93772 6.60678 4.98707 6.52118L8.22482 0.913435C8.27419 0.827925 8.30018 0.730926 8.30018 0.632188C8.30018 0.53345 8.27419 0.43645 8.22482 0.35094C8.17545 0.26543 8.10445 0.194421 8.01894 0.14505C7.93343 0.0956798 7.83643 0.0696869 7.73769 0.0696845H1.26219C1.16345 0.0696869 1.06646 0.0956798 0.980948 0.14505C0.895439 0.194421 0.824432 0.26543 0.775064 0.35094C0.725696 0.43645 0.699706 0.53345 0.699707 0.632188C0.699708 0.730926 0.725699 0.827925 0.775068 0.913435L4.01282 6.52118H4.01244Z" fill="#6B6B6B"/>
</svg>
