<svg width="29" height="41" viewBox="0 0 29 41" fill="none" xmlns="http://www.w3.org/2000/svg">
<path fill-rule="evenodd" clip-rule="evenodd" d="M2.77787 1.15168C2.44016 0.985734 2.05053 0.959973 1.6939 1.08001C1.33727 1.20005 1.04254 1.45615 0.873956 1.79251C0.70537 2.12888 0.676586 2.51823 0.793879 2.87571C0.911171 3.2332 1.16503 3.52985 1.50014 3.701L2.13901 4.02038V26.2628L1.50014 26.5822C1.33253 26.6659 1.18305 26.7818 1.06024 26.9232C0.937421 27.0647 0.843674 27.2289 0.78435 27.4066C0.725025 27.5843 0.701284 27.7719 0.714482 27.9588C0.727679 28.1456 0.777557 28.328 0.861267 28.4956C0.944977 28.6632 1.06088 28.8126 1.20236 28.9354C1.34384 29.0582 1.50812 29.152 1.68583 29.2113C1.86354 29.2706 2.05119 29.2943 2.23808 29.2811C2.42496 29.2679 2.60741 29.2181 2.77502 29.1344L28.2129 16.4163C28.4494 16.2977 28.6483 16.1157 28.7873 15.8906C28.9263 15.6655 28.9999 15.4062 28.9999 15.1416C28.9999 14.877 28.9263 14.6177 28.7873 14.3926C28.6483 14.1675 28.4494 13.9855 28.2129 13.8669L2.77502 1.14598L2.77787 1.15168Z" fill="#FF5D5D"/>
<path fill-rule="evenodd" clip-rule="evenodd" d="M2.13907 0.957764C2.70639 0.957764 3.25047 1.18309 3.65162 1.58417C4.05278 1.98526 4.27814 2.52924 4.27814 3.09646V38.4904C4.27814 39.0576 4.05278 39.6016 3.65162 40.0027C3.25047 40.4038 2.70639 40.6291 2.13907 40.6291C1.57175 40.6291 1.02767 40.4038 0.626519 40.0027C0.225366 39.6016 1.19553e-08 39.0576 0 38.4904V3.09646C0 2.52924 0.225366 1.98526 0.626519 1.58417C1.02767 1.18309 1.57175 0.957764 2.13907 0.957764Z" fill="#E10000"/>
<path d="M11.4166 11.7083C11.4166 11.5646 11.4737 11.4269 11.5752 11.3253C11.6768 11.2237 11.8146 11.1666 11.9583 11.1666H13.3742C13.705 11.1666 14.0279 11.2676 14.2998 11.4561C14.5717 11.6445 14.7796 11.9115 14.8957 12.2213L16.1383 15.5346C16.6553 15.629 17.1205 15.908 17.4471 16.3198C17.7738 16.7315 17.9396 17.248 17.9139 17.7729C17.8881 18.2979 17.6724 18.7956 17.307 19.1734C16.9416 19.5512 16.4513 19.7833 15.9275 19.8265C15.4037 19.8697 14.882 19.7211 14.4596 19.4084C14.0372 19.0956 13.7429 18.64 13.6314 18.1264C13.5199 17.6127 13.5988 17.0761 13.8536 16.6164C14.1083 16.1566 14.5214 15.8051 15.016 15.6273L14.7652 14.9583L10.9887 16.3742C11.2796 16.7656 11.4299 17.2438 11.4154 17.7312C11.4008 18.2187 11.2223 18.687 10.9085 19.0604C10.5948 19.4338 10.1643 19.6904 9.68664 19.7888C9.20897 19.8871 8.71209 19.8215 8.27637 19.6024C7.84066 19.3833 7.4916 19.0236 7.28566 18.5816C7.07972 18.1395 7.02895 17.6409 7.14156 17.1663C7.25416 16.6918 7.52356 16.2692 7.90618 15.9668C8.28879 15.6644 8.76223 15.4999 9.24992 15.5H9.26184L8.66005 14.4166H8.16659C8.02293 14.4166 7.88515 14.3596 7.78357 14.258C7.68199 14.1564 7.62492 14.0186 7.62492 13.875C7.62492 13.7313 7.68199 13.5935 7.78357 13.4919C7.88515 13.3904 8.02293 13.3333 8.16659 13.3333H10.3333C10.4769 13.3333 10.6147 13.3904 10.7163 13.4919C10.8179 13.5935 10.8749 13.7313 10.8749 13.875C10.8749 14.0186 10.8179 14.1564 10.7163 14.258C10.6147 14.3596 10.4769 14.4166 10.3333 14.4166H9.89992L10.4557 15.4171L14.3849 13.9438L13.8812 12.6015C13.8425 12.4983 13.7732 12.4093 13.6826 12.3465C13.592 12.2837 13.4844 12.25 13.3742 12.25H11.9583C11.8146 12.25 11.6768 12.1929 11.5752 12.0913C11.4737 11.9897 11.4166 11.852 11.4166 11.7083Z" fill="white"/>
</svg>
