<svg width="25" height="37" viewBox="0 0 25 37" fill="none" xmlns="http://www.w3.org/2000/svg">
<path fill-rule="evenodd" clip-rule="evenodd" d="M2.39464 0.900917C2.1035 0.751565 1.76761 0.72838 1.46017 0.836414C1.15273 0.944447 0.89866 1.17494 0.753326 1.47767C0.607993 1.78039 0.58318 2.13081 0.684294 2.45255C0.785408 2.77429 1.00425 3.04127 1.29314 3.19531L1.84389 3.48275V23.5009L1.29314 23.7884C1.14865 23.8637 1.01979 23.968 0.913912 24.0953C0.808037 24.2226 0.727221 24.3704 0.676079 24.5304C0.624937 24.6903 0.604471 24.8591 0.615848 25.0273C0.627225 25.1955 0.670223 25.3596 0.742387 25.5105C0.814551 25.6613 0.914468 25.7958 1.03643 25.9063C1.1584 26.0168 1.30002 26.1012 1.45322 26.1545C1.60641 26.2079 1.76819 26.2293 1.92929 26.2174C2.0904 26.2055 2.24769 26.1607 2.39218 26.0853L24.3213 14.639C24.5253 14.5324 24.6967 14.3685 24.8166 14.1659C24.9364 13.9633 24.9999 13.7299 24.9999 13.4918C24.9999 13.2537 24.9364 13.0203 24.8166 12.8177C24.6967 12.6151 24.5253 12.4513 24.3213 12.3446L2.39218 0.895784L2.39464 0.900917Z" fill="#FF5D5D"/>
<path fill-rule="evenodd" clip-rule="evenodd" d="M1.84403 0.726562C2.33309 0.726563 2.80213 0.929356 3.14795 1.29033C3.49377 1.65131 3.68805 2.14089 3.68805 2.65139V34.506C3.68805 35.0165 3.49377 35.506 3.14795 35.867C2.80213 36.228 2.33309 36.4308 1.84403 36.4308C1.35496 36.4308 0.885925 36.228 0.540103 35.867C0.194281 35.506 1.03063e-08 35.0165 0 34.506V2.65139C0 2.14089 0.194281 1.65131 0.540103 1.29033C0.885925 0.929356 1.35496 0.726563 1.84403 0.726562Z" fill="#E10000"/>
<path d="M14.625 13.125H13.4563C13.3188 13.125 13.1812 13.0563 13.0437 12.9875L12.15 12.0938C12.0125 11.8875 11.7375 11.75 11.3938 11.75H11.1875C11.9438 11.75 12.5625 11.1313 12.5625 10.375C12.5625 9.61875 11.9438 9 11.1875 9C10.4312 9 9.8125 9.61875 9.8125 10.375C9.8125 10.8562 10.0875 11.3375 10.5 11.5438L10.3625 11.75H8.9875C8.23125 11.75 7.40625 12.0938 6.925 12.7812L6.5125 13.3313C6.2375 13.6063 6.375 14.0187 6.65 14.225C6.925 14.3625 7.26875 14.2938 7.475 14.0188L7.81875 13.5375C8.025 13.2625 8.3 13.125 8.64375 13.125H9.19375L8.7125 14.225C8.50625 14.6375 8.4375 15.05 8.4375 15.5312V16.9062C8.4375 17.1125 8.3 17.25 8.09375 17.25H6.375C5.9625 17.25 5.6875 17.525 5.6875 17.9375C5.6875 18.35 5.9625 18.625 6.375 18.625H8.78125C9.33125 18.625 9.8125 18.1438 9.8125 17.5938V15.875L12.425 18.9688C12.8375 19.5875 13.5938 20 14.35 20H14.9688L11.2563 15.3938C11.05 15.1188 11.1188 14.8438 11.2563 14.5L11.6687 13.4688L12.15 14.0188C12.425 14.2938 12.8375 14.5 13.25 14.5H14.625C15.0375 14.5 15.3125 14.225 15.3125 13.8125C15.3125 13.4 15.0375 13.125 14.625 13.125Z" fill="white"/>
</svg>
