<svg width="29" height="41" viewBox="0 0 29 41" fill="none" xmlns="http://www.w3.org/2000/svg">
<path fill-rule="evenodd" clip-rule="evenodd" d="M2.13907 0.724121C2.70639 0.724121 3.25047 0.949447 3.65162 1.35053C4.05278 1.75161 4.27814 2.2956 4.27814 2.86282V38.2568C4.27814 38.824 4.05278 39.368 3.65162 39.7691C3.25047 40.1702 2.70639 40.3955 2.13907 40.3955C1.57175 40.3955 1.02767 40.1702 0.626519 39.7691C0.225366 39.368 1.19553e-08 38.824 0 38.2568V2.86282C0 2.2956 0.225366 1.75161 0.626519 1.35053C1.02767 0.949447 1.57175 0.724121 2.13907 0.724121Z" fill="#E10000"/>
<path fill-rule="evenodd" clip-rule="evenodd" d="M2.77787 0.917794C2.44016 0.751848 2.05053 0.726086 1.6939 0.846124C1.33727 0.966161 1.04254 1.22227 0.873956 1.55863C0.70537 1.89499 0.676586 2.28434 0.793879 2.64183C0.911171 2.99931 1.16503 3.29596 1.50014 3.46712L2.13901 3.7865V26.0289L1.50014 26.3483C1.33253 26.432 1.18305 26.5479 1.06024 26.6893C0.937421 26.8308 0.843674 26.995 0.78435 27.1727C0.725025 27.3504 0.701284 27.538 0.714482 27.7249C0.727679 27.9117 0.777557 28.0941 0.861267 28.2617C0.944977 28.4293 1.06088 28.5788 1.20236 28.7015C1.34384 28.8243 1.50812 28.9181 1.68583 28.9774C1.86354 29.0367 2.05119 29.0604 2.23808 29.0472C2.42496 29.034 2.60741 28.9842 2.77502 28.9005L28.2129 16.1824C28.4494 16.0638 28.6483 15.8818 28.7873 15.6567C28.9263 15.4316 28.9999 15.1723 28.9999 14.9077C28.9999 14.6432 28.9263 14.3838 28.7873 14.1587C28.6483 13.9336 28.4494 13.7516 28.2129 13.633L2.77502 0.912091L2.77787 0.917794Z" fill="#FF5D5D"/>
<path fill-rule="evenodd" clip-rule="evenodd" d="M9.9646 8.125C10.5728 8.125 11.0651 8.63185 11.0651 9.2401C11.0651 9.84835 10.5728 10.355 9.9646 10.355C9.35635 10.355 8.8495 9.8482 8.8495 9.2401C8.8495 8.632 9.3565 8.125 9.9646 8.125ZM10.037 10.4564C10.4555 10.4434 10.7791 10.7038 10.9493 10.9778L11.9397 12.6244C12.0489 12.806 12.213 12.9482 12.4083 13.0305L14.1352 13.7582C14.7109 14.0028 14.4425 14.7627 13.7992 14.6011C13.7917 14.5992 13.7844 14.5959 13.778 14.5916C13.7449 14.5699 13.7015 14.585 13.6852 14.621L12.5365 17.1626C12.4203 17.4199 12.4179 17.7138 12.5334 17.9714C12.7106 18.3662 13.0031 19.0066 13.3387 19.6955C13.8745 20.8394 12.5711 21.3319 12.0932 20.2747L12.0854 20.2571C11.9027 19.8474 11.3222 19.8447 11.1357 20.2526L10.986 20.5802C10.9497 20.6595 10.8561 20.6947 10.7765 20.6589C10.6962 20.6228 10.6607 20.5281 10.6974 20.448L11.2503 19.2436C11.3718 18.9788 11.3718 18.6743 11.2504 18.4096L10.1245 15.9542C10.0989 15.8985 10.0418 15.867 9.98066 15.8628C9.93021 15.8593 9.8798 15.8862 9.85944 15.9325C9.63141 16.451 8.27666 19.5295 7.87915 20.3906C7.4593 21.3319 6.214 20.7671 6.63385 19.8401C6.90376 19.2446 7.82554 17.1719 8.44989 15.7665C8.73131 15.133 8.25991 14.4228 7.56685 14.4341C7.34185 14.4361 7.288 14.4002 7.27375 14.2316C7.2508 13.7861 7.2115 12.7379 7.31455 12.2521C7.44745 11.6258 7.5268 10.9366 7.96615 10.7315C8.01157 10.7104 8.06044 10.6974 8.11156 10.6912C8.66947 10.6239 9.47509 10.4564 10.037 10.4564ZM11.3981 13.4977C11.269 13.2797 10.9348 13.3713 10.9348 13.6246V14.3556C10.9348 14.4201 10.9487 14.4839 10.9755 14.5425L11.3301 15.3176C11.6626 16.0444 12.6956 16.0433 13.0266 15.3159C13.2448 14.8363 13.0225 14.2713 12.536 14.0689L11.6155 13.6859C11.5285 13.6424 11.4562 13.5845 11.3981 13.4977Z" fill="white"/>
</svg>
