<svg width="16" height="16" viewBox="0 0 16 16" fill="none" xmlns="http://www.w3.org/2000/svg">
<path d="M8.34087 15.6387C3.06781 15.6387 1.65894 10.1419 2.29578 6.54038C2.3235 6.38363 2.52897 6.33848 2.6185 6.4701C2.89575 6.8776 3.14247 7.46619 3.55125 7.4151C4.16565 7.33829 4.59131 1.91679 8.23272 0.39132C8.34828 0.342914 8.46918 0.434757 8.4565 0.559382C8.27643 2.32604 9.33715 4.85526 11.2164 4.85526C12.2936 4.85526 13.0307 3.99551 13.399 3.13207C13.5109 2.86979 13.8941 2.90285 13.9582 3.18069C14.6155 6.02701 16.3723 15.6387 8.34087 15.6387Z" fill="#FF8F1F"/>
<path d="M6.49246 10.3384C6.61646 10.2342 6.80471 10.3057 6.83286 10.4652C6.89874 10.8384 7.11536 11.4798 7.82592 11.4798C8.68068 11.4798 9.26074 9.12783 9.41286 8.43611C9.43789 8.3223 9.5488 8.24502 9.66299 8.26824C11.7991 8.70255 12.8377 15.6388 8.14102 15.6388C4.72189 15.6388 5.49649 11.1751 6.49246 10.3384ZM12.3294 2.82674C12.4046 2.23793 11.3298 3.84839 11.3298 3.84839C11.3298 3.84839 12.1492 4.23546 12.3294 2.82674ZM1.49893 11.6081C1.52158 11.3574 1.19911 10.6863 1.14202 10.952C1.00536 11.5877 1.47627 11.8587 1.49893 11.6081Z" fill="#FFB636"/>
<path d="M10.0993 10.8936C10.0192 10.5596 9.73192 11.3355 9.76801 11.6516C9.80411 11.9676 10.2909 11.6929 10.0993 10.8936Z" fill="#FFD469"/>
</svg>
