<svg width="33" height="34" viewBox="0 0 33 34" fill="none" xmlns="http://www.w3.org/2000/svg">
<path d="M6.875 26.625V14.6735C6.875 14.3215 6.95383 13.9882 7.1115 13.6738C7.26917 13.3594 7.48642 13.1005 7.76325 12.897L15.1676 7.28971C15.5554 6.99362 15.9981 6.84558 16.4959 6.84558C16.9936 6.84558 17.4391 6.99362 17.8324 7.28971L25.2367 12.8956C25.5145 13.0991 25.7317 13.3585 25.8885 13.6738C26.0462 13.9882 26.125 14.3215 26.125 14.6735V26.625C26.125 26.9935 25.988 27.3147 25.7139 27.5888C25.4398 27.8629 25.1185 28 24.75 28H20.097C19.7817 28 19.5177 27.8936 19.305 27.681C19.0923 27.4674 18.986 27.2034 18.986 26.889V20.3316C18.986 20.0172 18.8797 19.7536 18.667 19.541C18.4534 19.3274 18.1894 19.2206 17.875 19.2206H15.125C14.8106 19.2206 14.547 19.3274 14.3344 19.541C14.1208 19.7536 14.014 20.0172 14.014 20.3316V26.8903C14.014 27.2048 13.9077 27.4683 13.695 27.681C13.4823 27.8936 13.2188 28 12.9044 28H8.25C7.8815 28 7.56021 27.8629 7.28612 27.5888C7.01204 27.3147 6.875 26.9935 6.875 26.625Z" fill="#959595"/>
</svg>
