<svg width="35" height="35" viewBox="0 0 35 35" fill="none" xmlns="http://www.w3.org/2000/svg">
<path fill-rule="evenodd" clip-rule="evenodd" d="M17.4999 30.6251L18.5324 31.6547C18.3969 31.7907 18.2359 31.8986 18.0586 31.9723C17.8813 32.0459 17.6912 32.0838 17.4992 32.0838C17.3072 32.0838 17.1171 32.0459 16.9398 31.9723C16.7625 31.8986 16.6015 31.7907 16.466 31.6547L16.4572 31.6445L16.4324 31.6197L16.342 31.5278C15.828 30.9982 15.3224 30.4605 14.8253 29.9149C13.5781 28.5472 12.3833 27.1326 11.2437 25.674C9.94284 23.997 8.61284 22.1011 7.60221 20.2286C6.61346 18.3926 5.83325 16.4034 5.83325 14.5834C5.83325 7.96404 11.0716 2.91675 17.4999 2.91675C23.9283 2.91675 29.1666 7.96404 29.1666 14.5834C29.1666 16.4034 28.3864 18.3926 27.3976 20.2272C26.387 22.1026 25.0585 23.997 23.7562 25.674C22.1619 27.7144 20.46 29.6684 18.6578 31.5278L18.5674 31.6197L18.5426 31.6445L18.5339 31.6532L17.4999 30.6251ZM17.4999 18.9584C18.6602 18.9584 19.773 18.4975 20.5935 17.677C21.414 16.8565 21.8749 15.7437 21.8749 14.5834C21.8749 13.4231 21.414 12.3103 20.5935 11.4898C19.773 10.6694 18.6602 10.2084 17.4999 10.2084C16.3396 10.2084 15.2268 10.6694 14.4063 11.4898C13.5859 12.3103 13.1249 13.4231 13.1249 14.5834C13.1249 15.7437 13.5859 16.8565 14.4063 17.677C15.2268 18.4975 16.3396 18.9584 17.4999 18.9584Z" fill="#23AFB4"/>
</svg>
