<svg width="31" height="32" viewBox="0 0 31 32" fill="none" xmlns="http://www.w3.org/2000/svg">
<path d="M14.2083 12.125C14.2083 14.2691 12.4774 16 10.3333 16C8.18909 16 6.45825 14.2691 6.45825 12.125C6.45825 9.98079 8.18909 8.24996 10.3333 8.24996C12.4774 8.24996 14.2083 9.98079 14.2083 12.125ZM18.0833 26.3333H2.58325V23.75C2.58325 20.8954 6.05784 18.5833 10.3333 18.5833C14.6087 18.5833 18.0833 20.8954 18.0833 23.75M28.4166 16V18.5833H16.7916V16M28.4166 10.8333V13.4166H16.7916V10.8333M28.4166 5.66663V8.24996H16.7916V5.66663H28.4166Z" fill="#7E7E7E"/>
</svg>
