<svg width="24" height="25" viewBox="0 0 24 25" fill="none" xmlns="http://www.w3.org/2000/svg">
<path d="M1.87402 18.125C1.87402 18.8212 2.15059 19.4889 2.64287 19.9812C3.13515 20.4734 3.80283 20.75 4.49902 20.75C5.19522 20.75 5.8629 20.4734 6.35518 19.9812C6.84746 19.4889 7.12402 18.8212 7.12402 18.125C7.12402 17.4288 6.84746 16.7611 6.35518 16.2688C5.8629 15.7766 5.19522 15.5 4.49902 15.5C3.80283 15.5 3.13515 15.7766 2.64287 16.2688C2.15059 16.7611 1.87402 17.4288 1.87402 18.125Z" stroke="#7E7979" stroke-width="1.5" stroke-linecap="round" stroke-linejoin="round"/>
<path d="M8.24902 23.75C7.88654 23.0703 7.34615 22.502 6.68563 22.1057C6.02511 21.7093 5.26931 21.5 4.49902 21.5C3.72874 21.5 2.97293 21.7093 2.31242 22.1057C1.6519 22.502 1.11151 23.0703 0.749023 23.75M16.874 18.125C16.874 18.4697 16.9419 18.8111 17.0738 19.1295C17.2058 19.448 17.3991 19.7374 17.6429 19.9812C17.8866 20.2249 18.176 20.4183 18.4945 20.5502C18.813 20.6821 19.1543 20.75 19.499 20.75C19.8437 20.75 20.1851 20.6821 20.5036 20.5502C20.822 20.4183 21.1114 20.2249 21.3552 19.9812C21.5989 19.7374 21.7923 19.448 21.9242 19.1295C22.0561 18.8111 22.124 18.4697 22.124 18.125C22.124 17.4288 21.8475 16.7611 21.3552 16.2688C20.8629 15.7766 20.1952 15.5 19.499 15.5C18.8028 15.5 18.1352 15.7766 17.6429 16.2688C17.1506 16.7611 16.874 17.4288 16.874 18.125Z" stroke="#7E7979" stroke-width="1.5" stroke-linecap="round" stroke-linejoin="round"/>
<path d="M23.249 23.75C22.8866 23.0703 22.3462 22.502 21.6857 22.1057C21.0251 21.7093 20.2693 21.5 19.499 21.5C18.7288 21.5 17.973 21.7093 17.3124 22.1057C16.6519 22.502 16.1115 23.0703 15.749 23.75M15.248 8.75C14.8472 8.2796 14.349 7.90182 13.7879 7.64277C13.2267 7.38371 12.6161 7.24955 11.998 7.24955C11.38 7.24955 10.7693 7.38371 10.2082 7.64277C9.6471 7.90182 9.14891 8.2796 8.74805 8.75M9.05005 20.207C10.9653 20.9369 13.0832 20.9305 14.994 20.189M6.34805 6.5C5.52723 7.26901 4.87296 8.19829 4.42574 9.23033C3.97852 10.2624 3.74786 11.3752 3.74805 12.5C3.74805 12.753 3.76305 13 3.78605 13.25M20.211 13.25C20.233 13.002 20.249 12.75 20.249 12.5C20.2492 11.3752 20.0186 10.2624 19.5714 9.23033C19.1241 8.19829 18.4699 7.26901 17.649 6.5M9.37405 3.875C9.37405 4.21972 9.44194 4.56106 9.57386 4.87954C9.70578 5.19802 9.89914 5.4874 10.1429 5.73116C10.3866 5.97491 10.676 6.16827 10.9945 6.30018C11.313 6.4321 11.6543 6.5 11.999 6.5C12.3438 6.5 12.6851 6.4321 13.0036 6.30018C13.3221 6.16827 13.6114 5.97491 13.8552 5.73116C14.099 5.4874 14.2923 5.19802 14.4242 4.87954C14.5561 4.56106 14.624 4.21972 14.624 3.875C14.624 3.17881 14.3475 2.51113 13.8552 2.01884C13.3629 1.52656 12.6952 1.25 11.999 1.25C11.3029 1.25 10.6352 1.52656 10.1429 2.01884C9.65061 2.51113 9.37405 3.17881 9.37405 3.875Z" stroke="#7E7979" stroke-width="1.5" stroke-linecap="round" stroke-linejoin="round"/>
</svg>
