<svg width="13" height="13" viewBox="0 0 13 13" fill="none" xmlns="http://www.w3.org/2000/svg">
<path fill-rule="evenodd" clip-rule="evenodd" d="M10.9044 1.71162C10.5996 1.40698 10.1864 1.23584 9.75549 1.23584C9.3246 1.23584 8.91135 1.40698 8.60662 1.71162L8.22366 2.09512L10.9049 4.77637L11.2873 4.39341C11.4382 4.24251 11.558 4.06336 11.6397 3.86619C11.7213 3.66902 11.7634 3.45768 11.7634 3.24426C11.7634 3.03084 11.7213 2.81951 11.6397 2.62234C11.558 2.42517 11.4382 2.24602 11.2873 2.09512L10.9044 1.71162ZM10.1384 5.54228L7.4572 2.86103L2.53345 7.78533C2.4257 7.89309 2.35043 8.02899 2.31624 8.17749L1.75887 10.5906C1.7381 10.6802 1.74048 10.7736 1.76579 10.862C1.7911 10.9504 1.8385 11.0309 1.90352 11.096C1.96855 11.161 2.04906 11.2084 2.13747 11.2337C2.22588 11.259 2.31928 11.2614 2.40887 11.2406L4.82253 10.6838C4.97084 10.6495 5.10654 10.5742 5.21416 10.4666L10.1384 5.54228Z" fill="white"/>
</svg>
