<svg width="35" height="35" viewBox="0 0 35 35" fill="none" xmlns="http://www.w3.org/2000/svg">
<path d="M10.9374 5.83325C8.12284 5.83325 5.83325 8.12284 5.83325 10.9374C5.83325 13.752 8.12284 16.0416 10.9374 16.0416C13.752 16.0416 16.0416 13.752 16.0416 10.9374C16.0416 8.12284 13.752 5.83325 10.9374 5.83325ZM10.9374 13.1249C9.727 13.1249 8.74992 12.1478 8.74992 10.9374C8.74992 9.727 9.727 8.74992 10.9374 8.74992C12.1478 8.74992 13.1249 9.727 13.1249 10.9374C13.1249 12.1478 12.1478 13.1249 10.9374 13.1249ZM24.0624 18.9583C21.2478 18.9583 18.9583 21.2478 18.9583 24.0624C18.9583 26.877 21.2478 29.1666 24.0624 29.1666C26.877 29.1666 29.1666 26.877 29.1666 24.0624C29.1666 21.2478 26.877 18.9583 24.0624 18.9583ZM24.0624 26.2499C22.852 26.2499 21.8749 25.2728 21.8749 24.0624C21.8749 22.852 22.852 21.8749 24.0624 21.8749C25.2728 21.8749 26.2499 22.852 26.2499 24.0624C26.2499 25.2728 25.2728 26.2499 24.0624 26.2499ZM7.8895 29.1666L5.83325 27.1103L27.1103 5.83325L29.1666 7.8895L7.8895 29.1666Z" fill="#409DFF"/>
</svg>
