<svg width="35" height="35" viewBox="0 0 35 35" fill="none" xmlns="http://www.w3.org/2000/svg">
<path d="M21.5163 14.5833C22.9251 14.5833 24.0684 15.7267 24.0684 17.1354V24.061C24.0684 25.8019 23.3769 27.4715 22.1459 28.7025C20.9149 29.9334 19.2453 30.625 17.5045 30.625C15.7636 30.625 14.094 29.9334 12.863 28.7025C11.6321 27.4715 10.9405 25.8019 10.9405 24.061V17.1354C10.9405 15.7267 12.0824 14.5833 13.4926 14.5833H21.5163ZM10.3995 14.5833C9.87251 15.2144 9.55634 15.9947 9.49529 16.8146L9.48071 17.1354V24.061C9.48071 25.2963 9.76071 26.4658 10.2595 27.51C9.77723 27.6413 9.27411 27.7074 8.75008 27.7083C7.98391 27.7083 7.22525 27.5574 6.51742 27.2642C5.8096 26.9709 5.16647 26.5411 4.62478 25.9993C4.08308 25.4574 3.65343 24.8142 3.36037 24.1063C3.0673 23.3984 2.91656 22.6397 2.91675 21.8735V17.1354C2.91677 16.4949 3.15762 15.8779 3.59149 15.4067C4.02536 14.9356 4.62052 14.6448 5.25883 14.5921L5.46883 14.5833H10.3995ZM24.6095 14.5833H29.5313C30.9401 14.5833 32.0834 15.7267 32.0834 17.1354V21.875C32.0836 22.7692 31.8782 23.6515 31.4831 24.4537C31.0881 25.2558 30.5138 25.9565 29.8049 26.5014C29.0959 27.0463 28.2711 27.4209 27.3943 27.5963C26.5175 27.7717 25.612 27.7432 24.748 27.5129C25.1855 26.5971 25.4538 25.5879 25.5136 24.5204L25.5267 24.061V17.1354C25.5267 16.1656 25.184 15.276 24.6095 14.5833ZM17.5001 4.375C18.6604 4.375 19.7732 4.83594 20.5937 5.65641C21.4141 6.47688 21.8751 7.58968 21.8751 8.75C21.8751 9.91032 21.4141 11.0231 20.5937 11.8436C19.7732 12.6641 18.6604 13.125 17.5001 13.125C16.3398 13.125 15.227 12.6641 14.4065 11.8436C13.586 11.0231 13.1251 9.91032 13.1251 8.75C13.1251 7.58968 13.586 6.47688 14.4065 5.65641C15.227 4.83594 16.3398 4.375 17.5001 4.375ZM26.9792 5.83333C27.9462 5.83333 28.8735 6.21745 29.5572 6.90117C30.241 7.5849 30.6251 8.51223 30.6251 9.47917C30.6251 10.4461 30.241 11.3734 29.5572 12.0572C28.8735 12.7409 27.9462 13.125 26.9792 13.125C26.0123 13.125 25.085 12.7409 24.4013 12.0572C23.7175 11.3734 23.3334 10.4461 23.3334 9.47917C23.3334 8.51223 23.7175 7.5849 24.4013 6.90117C25.085 6.21745 26.0123 5.83333 26.9792 5.83333ZM8.02091 5.83333C8.98785 5.83333 9.91518 6.21745 10.5989 6.90117C11.2826 7.5849 11.6667 8.51223 11.6667 9.47917C11.6667 10.4461 11.2826 11.3734 10.5989 12.0572C9.91518 12.7409 8.98785 13.125 8.02091 13.125C7.05398 13.125 6.12665 12.7409 5.44292 12.0572C4.75919 11.3734 4.37508 10.4461 4.37508 9.47917C4.37508 8.51223 4.75919 7.5849 5.44292 6.90117C6.12665 6.21745 7.05398 5.83333 8.02091 5.83333Z" fill="#23AFB4"/>
</svg>
