<svg width="62" height="62" viewBox="0 0 62 62" fill="none" xmlns="http://www.w3.org/2000/svg">
<path d="M30.9999 31C28.1583 31 25.7256 29.9882 23.702 27.9646C21.6784 25.941 20.6666 23.5084 20.6666 20.6667C20.6666 17.825 21.6784 15.3924 23.702 13.3688C25.7256 11.3452 28.1583 10.3334 30.9999 10.3334C33.8416 10.3334 36.2742 11.3452 38.2978 13.3688C40.3214 15.3924 41.3333 17.825 41.3333 20.6667C41.3333 23.5084 40.3214 25.941 38.2978 27.9646C36.2742 29.9882 33.8416 31 30.9999 31ZM10.3333 51.6667V44.4334C10.3333 42.9695 10.7104 41.6244 11.4648 40.3982C12.2191 39.172 13.2197 38.2351 14.4666 37.5875C17.136 36.2528 19.8485 35.2522 22.6041 34.5857C25.3596 33.9192 28.1583 33.5851 30.9999 33.5834C33.8416 33.5817 36.6402 33.9158 39.3958 34.5857C42.1513 35.2556 44.8638 36.2563 47.5333 37.5875C48.7819 38.2334 49.7833 39.1703 50.5377 40.3982C51.292 41.6262 51.6683 42.9712 51.6666 44.4334V51.6667H10.3333Z" fill="#B3B3B3"/>
</svg>
