<svg width="54" height="54" viewBox="0 0 54 54" fill="none" xmlns="http://www.w3.org/2000/svg">
<circle cx="27" cy="27" r="27" fill="#FFBBBB"/>
<path d="M15.6 25.2C14.2745 25.2 13.2 26.2745 13.2 27.6C13.2 28.9254 14.2745 30 15.6 30H38.3999C39.7254 30 40.7999 28.9254 40.7999 27.6C40.7999 26.2745 39.7254 25.2 38.3999 25.2H15.6Z" fill="white"/>
<path d="M24.9231 15.6C24.9231 14.2745 25.9976 13.2 27.3231 13.2C28.6486 13.2 29.7231 14.2745 29.7231 15.6V38.3999C29.7231 39.7254 28.6486 40.8 27.3231 40.8C25.9976 40.8 24.9231 39.7254 24.9231 38.4V15.6Z" fill="white"/>
</svg>
