<svg width="16" height="16" viewBox="0 0 16 16" fill="none" xmlns="http://www.w3.org/2000/svg">
<path d="M7.99992 5.66667C7.7347 5.66667 7.48035 5.77202 7.29281 5.95956C7.10528 6.1471 6.99992 6.40145 6.99992 6.66667V6.738C6.99992 6.82641 6.9648 6.91119 6.90229 6.9737C6.83978 7.03621 6.75499 7.07133 6.66659 7.07133C6.57818 7.07133 6.49339 7.03621 6.43088 6.9737C6.36837 6.91119 6.33325 6.82641 6.33325 6.738V6.66667C6.33325 6.22464 6.50885 5.80072 6.82141 5.48816C7.13397 5.17559 7.55789 5 7.99992 5H8.07725C8.40186 5.0001 8.71865 5.09959 8.98503 5.28509C9.2514 5.4706 9.45459 5.73322 9.56727 6.03764C9.67995 6.34206 9.69671 6.67368 9.61531 6.98791C9.5339 7.30214 9.35823 7.58391 9.11192 7.79533L8.59792 8.236C8.51503 8.30723 8.44848 8.3955 8.4028 8.49479C8.35713 8.59407 8.33341 8.70204 8.33325 8.81133V9.16667C8.33325 9.25507 8.29813 9.33986 8.23562 9.40237C8.17311 9.46488 8.08832 9.5 7.99992 9.5C7.91151 9.5 7.82673 9.46488 7.76422 9.40237C7.7017 9.33986 7.66659 9.25507 7.66659 9.16667V8.81133C7.66659 8.39533 7.84859 8.00067 8.16392 7.73L8.67725 7.29C8.82041 7.16735 8.92256 7.00379 8.96996 6.82133C9.01736 6.63888 9.00773 6.44628 8.94238 6.26946C8.87702 6.09264 8.75908 5.94008 8.60441 5.83231C8.44973 5.72454 8.26576 5.66673 8.07725 5.66667H7.99992ZM7.99992 11C8.13253 11 8.2597 10.9473 8.35347 10.8536C8.44724 10.7598 8.49992 10.6326 8.49992 10.5C8.49992 10.3674 8.44724 10.2402 8.35347 10.1464C8.2597 10.0527 8.13253 10 7.99992 10C7.86731 10 7.74013 10.0527 7.64637 10.1464C7.5526 10.2402 7.49992 10.3674 7.49992 10.5C7.49992 10.6326 7.5526 10.7598 7.64637 10.8536C7.74013 10.9473 7.86731 11 7.99992 11Z" fill="#959595"/>
<path d="M2.33325 8.00004C2.33325 6.49715 2.93027 5.05581 3.99298 3.9931C5.05569 2.9304 6.49703 2.33337 7.99992 2.33337C9.50281 2.33337 10.9442 2.9304 12.0069 3.9931C13.0696 5.05581 13.6666 6.49715 13.6666 8.00004C13.6666 9.50293 13.0696 10.9443 12.0069 12.007C10.9442 13.0697 9.50281 13.6667 7.99992 13.6667C6.49703 13.6667 5.05569 13.0697 3.99298 12.007C2.93027 10.9443 2.33325 9.50293 2.33325 8.00004ZM7.99992 3.00004C6.67384 3.00004 5.40207 3.52682 4.46438 4.46451C3.5267 5.40219 2.99992 6.67396 2.99992 8.00004C2.99992 9.32612 3.5267 10.5979 4.46438 11.5356C5.40207 12.4733 6.67384 13 7.99992 13C9.326 13 10.5978 12.4733 11.5355 11.5356C12.4731 10.5979 12.9999 9.32612 12.9999 8.00004C12.9999 6.67396 12.4731 5.40219 11.5355 4.46451C10.5978 3.52682 9.326 3.00004 7.99992 3.00004Z" fill="#959595"/>
</svg>
