<svg width="26" height="27" viewBox="0 0 26 27" fill="none" xmlns="http://www.w3.org/2000/svg">
<path d="M19.5001 6.99996H19.5099M20.279 12.1079C20.0689 12.3072 19.7903 12.4183 19.5006 12.4183C19.211 12.4183 18.9324 12.3072 18.7223 12.1079C16.8102 10.2846 14.2481 8.24688 15.4972 5.28938C16.1732 3.69038 17.7939 2.66663 19.5001 2.66663C21.2064 2.66663 22.8281 3.69038 23.503 5.28829C24.751 8.24363 22.1965 10.29 20.279 12.1079Z" stroke="#7E7979" stroke-width="1.5" stroke-linecap="round" stroke-linejoin="round"/>
<path d="M5.41675 24.3333C7.21167 24.3333 8.66675 22.8782 8.66675 21.0833C8.66675 19.2883 7.21167 17.8333 5.41675 17.8333C3.62182 17.8333 2.16675 19.2883 2.16675 21.0833C2.16675 22.8782 3.62182 24.3333 5.41675 24.3333Z" stroke="#7E7979" stroke-width="1.5" stroke-linecap="round" stroke-linejoin="round"/>
<path d="M11.9167 8.08325H10.2917C8.19758 8.08325 6.5 9.53817 6.5 11.3333C6.5 13.1283 8.19758 14.5833 10.2917 14.5833H13.5417C15.6357 14.5833 17.3333 16.0382 17.3333 17.8333C17.3333 19.6283 15.6357 21.0833 13.5417 21.0833H11.9167" stroke="#7E7979" stroke-width="1.5" stroke-linecap="round" stroke-linejoin="round"/>
</svg>
