<svg width="53" height="52" viewBox="0 0 53 52" fill="none" xmlns="http://www.w3.org/2000/svg">
<path d="M45.8315 19.4438H40.3224C39.6743 19.4438 39.0262 19.1197 38.3781 18.7956L34.1652 14.5828C33.5171 13.6106 32.2209 12.9625 30.6006 12.9625H29.6284C33.1931 12.9625 36.1096 10.0459 36.1096 6.48125C36.1096 2.91656 33.1931 0 29.6284 0C26.0637 0 23.1471 2.91656 23.1471 6.48125C23.1471 8.74969 24.4434 11.0181 26.3877 11.9903L25.7396 12.9625H19.2584C15.6937 12.9625 11.8049 14.5828 9.53649 17.8234L7.59212 20.4159C6.29587 21.7122 6.94399 23.6566 8.24024 24.6287C9.5365 25.2769 11.1568 24.9528 12.129 23.6566L13.7493 21.3881C14.7215 20.0919 16.0177 19.4438 17.6381 19.4438H20.2306L17.9621 24.6287C16.9899 26.5731 16.6659 28.5175 16.6659 30.7859V37.2672C16.6659 38.2394 16.0177 38.8875 15.0456 38.8875H6.94399C4.99962 38.8875 3.70337 40.1838 3.70337 42.1281C3.70337 44.0725 4.99962 45.3688 6.94399 45.3688H18.2862C20.8787 45.3688 23.1471 43.1003 23.1471 40.5078V32.4062L35.4615 46.9891C37.4059 49.9056 40.9706 51.85 44.5353 51.85H47.4518L29.9524 30.1378C28.9802 28.8416 29.3043 27.5453 29.9524 25.925L31.8968 21.0641L34.1652 23.6566C35.4615 24.9528 37.4059 25.925 39.3503 25.925H45.8315C47.7759 25.925 49.0721 24.6288 49.0721 22.6844C49.0721 20.74 47.7759 19.4438 45.8315 19.4438Z" fill="#0063CA"/>
</svg>
