<svg width="85" height="86" viewBox="0 0 85 86" fill="none" xmlns="http://www.w3.org/2000/svg">
<path d="M84.5 42.5169C84.5 65.989 65.696 85.0169 42.5 85.0169C19.304 85.0169 0.5 65.989 0.5 42.5169C0.5 19.0448 19.304 0.0168939 42.5 0.0168939C65.696 0.0168939 84.5 19.0448 84.5 42.5169Z" fill="#7E7979"/>
<path d="M28.6645 28.4656C29.0058 27.1006 29.1764 26.42 29.6845 26.0225C30.1945 25.625 30.8976 25.625 32.3039 25.625H52.6964C54.1026 25.625 54.8058 25.625 55.3158 26.0225C55.822 26.42 55.9945 27.1006 56.3358 28.4656L58.5914 37.4919C58.7733 38.2194 58.8651 38.5812 58.8445 38.8775C58.8189 39.2511 58.6819 39.6085 58.4513 39.9036C58.2207 40.1986 57.9071 40.4179 57.5508 40.5331C57.2695 40.625 56.887 40.625 56.1201 40.625C55.1208 40.625 54.6201 40.625 54.202 40.5275C53.6223 40.3925 53.0831 40.1214 52.6289 39.7366C52.1747 39.3519 51.8187 38.8646 51.5901 38.315C51.4233 37.9175 51.3426 37.4337 51.1833 36.4719C51.1383 36.2019 51.1158 36.0669 51.0895 36.0313C51.0721 36.0072 51.0493 35.9877 51.0229 35.9742C50.9965 35.9607 50.9673 35.9537 50.9376 35.9537C50.908 35.9537 50.8788 35.9607 50.8524 35.9742C50.826 35.9877 50.8031 36.0072 50.7858 36.0313C50.7595 36.0669 50.737 36.2 50.692 36.4719L50.5401 37.3888L50.5064 37.5762C50.3462 38.4192 49.9018 39.1816 49.2473 39.7365C48.5928 40.2913 47.7679 40.6049 46.9101 40.625H46.5276C45.6367 40.6049 44.7821 40.2681 44.1169 39.6751C43.4517 39.082 43.0195 38.2715 42.8976 37.3888L42.7458 36.47C42.7008 36.2019 42.6783 36.0669 42.652 36.0313C42.6346 36.0072 42.6118 35.9877 42.5854 35.9742C42.559 35.9607 42.5298 35.9537 42.5001 35.9537C42.4705 35.9537 42.4413 35.9607 42.4149 35.9742C42.3885 35.9877 42.3656 36.0072 42.3483 36.0313C42.322 36.0669 42.2995 36.2 42.2545 36.4719L42.1026 37.3888L42.0689 37.5762C41.9087 38.4192 41.4643 39.1816 40.8098 39.7365C40.1553 40.2913 39.3304 40.6049 38.4726 40.625H38.0901C37.2324 40.6049 36.4074 40.2913 35.753 39.7365C35.0985 39.1816 34.6541 38.4192 34.4939 37.5762L34.4601 37.3888L34.3083 36.47C34.2633 36.2019 34.2408 36.0669 34.2145 36.0313C34.1971 36.0072 34.1743 35.9877 34.1479 35.9742C34.1215 35.9607 34.0923 35.9537 34.0626 35.9537C34.033 35.9537 34.0038 35.9607 33.9774 35.9742C33.951 35.9877 33.9281 36.0072 33.9108 36.0313C33.8845 36.0669 33.862 36.2 33.817 36.4719C33.6576 37.4356 33.577 37.9156 33.4101 38.315C33.1818 38.8644 32.826 39.3516 32.3722 39.7363C31.9183 40.121 31.3795 40.3922 30.8001 40.5275C30.3801 40.625 29.8814 40.625 28.8801 40.625C28.1133 40.625 27.7308 40.625 27.4495 40.5331C27.0932 40.4179 26.7795 40.1986 26.5489 39.9036C26.3183 39.6085 26.1814 39.2511 26.1558 38.8775C26.137 38.5812 26.227 38.2194 26.4089 37.4919L28.6645 28.4656Z" fill="white"/>
<path fill-rule="evenodd" clip-rule="evenodd" d="M29.4069 43.4375C29.375 44.2269 29.375 45.1531 29.375 46.25V57.5C29.375 59.2681 29.375 60.1513 29.9244 60.7006C30.4738 61.25 31.3569 61.25 33.125 61.25H38.75V53.75C38.75 53.2527 38.9475 52.7758 39.2992 52.4242C39.6508 52.0725 40.1277 51.875 40.625 51.875H44.375C44.8723 51.875 45.3492 52.0725 45.7008 52.4242C46.0525 52.7758 46.25 53.2527 46.25 53.75V61.25H51.875C53.6431 61.25 54.5263 61.25 55.0756 60.7006C55.625 60.1513 55.625 59.2681 55.625 57.5V46.25C55.625 45.1531 55.625 44.2269 55.5931 43.4375C54.9087 43.4375 54.2094 43.4169 53.5625 43.2669C52.6026 43.0432 51.7054 42.6061 50.9375 41.9881C49.8425 42.8694 48.4625 43.4019 46.9756 43.4356L46.7394 43.4375H46.4619C45.0175 43.4031 43.6249 42.8929 42.5 41.9863C41.405 42.8675 40.025 43.4 38.5381 43.4338L38.3019 43.4356H38.0244C36.5802 43.4017 35.1876 42.8923 34.0625 41.9863C33.305 42.5956 32.4125 43.0363 31.4375 43.265C30.7906 43.415 30.0913 43.4338 29.4069 43.4356" fill="white"/>
</svg>
