<svg width="27" height="27" viewBox="0 0 27 27" fill="none" xmlns="http://www.w3.org/2000/svg">
<g clip-path="url(#clip0_150_217)">
<path fill-rule="evenodd" clip-rule="evenodd" d="M5.90542 14.4797C5.72679 14.3417 5.50543 14.2708 5.27989 14.2792C5.05435 14.2877 4.83893 14.375 4.67113 14.5259C2.99327 16.0341 1.07242 18.2076 0.0695592 20.7167C0.0195689 20.8418 -0.00364571 20.976 0.00141211 21.1106C0.00646994 21.2453 0.0396879 21.3774 0.0989243 21.4984C0.158161 21.6194 0.242101 21.7266 0.345332 21.8132C0.448563 21.8998 0.568794 21.9638 0.698273 22.0011L3.58534 22.8323L5.71449 26.5197C5.81126 26.6873 5.95618 26.8218 6.13042 26.9059C6.30465 26.9899 6.50015 27.0197 6.69151 26.9912C6.88286 26.9627 7.06122 26.8773 7.2034 26.7461C7.34558 26.6149 7.44501 26.444 7.48877 26.2555C8.10592 23.6076 9.29777 21.274 10.7866 19.5132C10.8711 19.4136 10.9344 19.2979 10.9728 19.1731C11.0112 19.0483 11.0238 18.917 11.0099 18.7871C10.996 18.6573 10.9559 18.5316 10.892 18.4177C10.8281 18.3039 10.7417 18.2042 10.6381 18.1247L5.90542 14.4797ZM22.3368 14.5356C22.1693 14.3844 21.954 14.2967 21.7284 14.2879C21.5029 14.2791 21.2814 14.3497 21.1026 14.4874L16.3679 18.1324C16.2648 18.2117 16.1787 18.3111 16.115 18.4246C16.0513 18.538 16.0112 18.6632 15.9971 18.7926C15.9831 18.922 15.9953 19.0529 16.0332 19.1774C16.0711 19.3019 16.1338 19.4174 16.2175 19.5171C17.7063 21.2779 18.8963 23.6114 19.5134 26.2555C19.5572 26.444 19.6566 26.6149 19.7988 26.7461C19.941 26.8773 20.1193 26.9627 20.3107 26.9912C20.502 27.0197 20.6975 26.9899 20.8718 26.9059C21.046 26.8218 21.1909 26.6873 21.2877 26.5197L23.4149 22.8323L26.3039 22.003C26.4335 21.9656 26.5537 21.9014 26.6569 21.8146C26.7601 21.7277 26.8439 21.6203 26.903 21.499C26.9621 21.3778 26.995 21.2455 26.9998 21.1108C27.0046 20.976 26.981 20.8418 26.9307 20.7167C25.9278 18.2114 24.0147 16.0418 22.3368 14.5356Z" fill="#2859C5"/>
<path fill-rule="evenodd" clip-rule="evenodd" d="M13.4923 -2.45536e-05C10.5377 -2.45536e-05 8.0942 0.83119 6.39127 2.53605C4.68641 4.24283 3.85327 6.68633 3.85327 9.6409C3.85327 12.5955 4.68641 15.0409 6.39127 16.7458C8.0942 18.4506 10.5377 19.2838 13.4923 19.2838C16.4449 19.2838 18.8884 18.4506 20.5913 16.7458C22.2962 15.0409 23.1293 12.5955 23.1293 9.6409C23.1293 6.68633 22.2962 4.2409 20.5913 2.53798C18.8884 0.833118 16.4449 -0.00195312 13.4942 -0.00195312L13.4923 -2.45536e-05Z" fill="#8FBFFA"/>
<path d="M12.4239 5.86863C12.8482 4.72113 14.418 4.68642 14.8211 5.83971C14.9773 6.28521 15.1123 6.76542 15.2492 7.34013C15.8567 7.33435 16.3697 7.34206 16.8596 7.36906C18.0862 7.43463 18.576 8.92349 17.5847 9.64863C17.3533 9.81652 17.1173 9.97794 16.8769 10.1327C16.7294 10.2285 16.6171 10.3697 16.5569 10.5349C16.4967 10.7002 16.4919 10.8806 16.5433 11.0488C16.6918 11.5251 16.8114 11.9552 16.9097 12.3756C17.1894 13.5521 15.93 14.4643 14.9542 13.7449C14.4764 13.3883 14.0229 13.0005 13.5964 12.5839C13.1729 12.9803 12.7273 13.3524 12.2619 13.6986C11.2783 14.4199 9.99001 13.5173 10.2754 12.3332C10.3719 11.9282 10.4914 11.5174 10.638 11.0565C10.6919 10.8872 10.6886 10.7048 10.6287 10.5375C10.5688 10.3703 10.4555 10.2273 10.3063 10.1308C10.0479 9.96417 9.79446 9.78988 9.54644 9.60813C8.56865 8.88878 9.04501 7.41728 10.2581 7.35556C10.7634 7.32856 11.2995 7.32663 11.9437 7.34013C12.1076 6.78085 12.2599 6.31028 12.4239 5.86863Z" fill="#2859C5"/>
</g>
<defs>
<clipPath id="clip0_150_217">
<rect width="27" height="27" fill="white"/>
</clipPath>
</defs>
</svg>
